<?xml version="1.0" encoding="UTF-8"?>
<svg width="140px" height="40px" viewBox="0 0 140 40" version="1.1" xmlns="http://www.w3.org/2000/svg" xmlns:xlink="http://www.w3.org/1999/xlink">
    <!-- Generator: Sketch 46 (44423) - http://www.bohemiancoding.com/sketch -->
    <title>Finance footer logo_EN@1x</title>
    <desc>Created with Sketch.</desc>
    <defs></defs>
    <g id="FUJICONS" stroke="none" stroke-width="1" fill="none" fill-rule="evenodd">
        <g id="Finance-footer-logo_EN">
            <path d="M28.645,17 L28.645,13.04 L25.015,6.275 L27.91,6.275 L29.29,9.05 C29.65,9.785 29.995,10.685 29.995,10.685 L30.025,10.685 C30.025,10.685 30.4,9.785 30.76,9.05 L32.125,6.275 L34.93,6.275 L31.3,13.04 L31.3,17 L28.645,17 Z M35.935,17.195 C34.405,17.195 33.31,16.37 33.31,14.855 C33.31,13.16 34.66,12.65 36.25,12.44 C37.69,12.26 38.2,12.11 38.2,11.585 C38.2,11.09 37.885,10.76 37.15,10.76 C36.37,10.76 35.98,11.105 35.905,11.75 L33.655,11.75 C33.715,10.325 34.81,9.11 37.135,9.11 C38.29,9.11 39.07,9.32 39.625,9.74 C40.285,10.22 40.6,10.97 40.6,11.93 L40.6,15.8 C40.6,16.415 40.66,16.76 40.87,16.895 L40.87,17 L38.5,17 C38.38,16.835 38.305,16.535 38.245,16.145 L38.215,16.145 C37.765,16.79 37.09,17.195 35.935,17.195 Z M36.715,15.635 C37.63,15.635 38.26,15.08 38.26,14.255 L38.26,13.34 C37.945,13.505 37.495,13.625 37,13.745 C36.055,13.955 35.665,14.195 35.665,14.78 C35.665,15.395 36.115,15.635 36.715,15.635 Z M41.725,17 L44.17,17 L44.17,12.755 C44.17,11.81 44.71,11.135 45.52,11.135 C46.315,11.135 46.72,11.69 46.72,12.5 L46.72,17 L49.165,17 L49.165,12.005 C49.165,10.295 48.175,9.095 46.495,9.095 C45.43,9.095 44.77,9.53 44.215,10.265 L44.17,10.265 L44.17,6.275 L41.725,6.275 L41.725,17 Z M53.965,15.5 C55.03,15.5 55.6,14.57 55.6,13.175 C55.6,11.78 55.03,10.835 53.965,10.835 C52.9,10.835 52.345,11.78 52.345,13.175 C52.345,14.57 52.9,15.5 53.965,15.5 Z M53.98,17.24 C51.52,17.24 49.87,15.485 49.87,13.175 C49.87,10.865 51.52,9.11 53.98,9.11 C56.455,9.11 58.075,10.865 58.075,13.175 C58.075,15.485 56.455,17.24 53.98,17.24 Z M62.59,15.5 C63.655,15.5 64.225,14.57 64.225,13.175 C64.225,11.78 63.655,10.835 62.59,10.835 C61.525,10.835 60.97,11.78 60.97,13.175 C60.97,14.57 61.525,15.5 62.59,15.5 Z M62.605,17.24 C60.145,17.24 58.495,15.485 58.495,13.175 C58.495,10.865 60.145,9.11 62.605,9.11 C65.08,9.11 66.7,10.865 66.7,13.175 C66.7,15.485 65.08,17.24 62.605,17.24 Z M69.88,17 L72.535,17 L72.535,12.83 L76.99,12.83 L76.99,10.685 L72.535,10.685 L72.535,8.51 L77.86,8.51 L77.86,6.275 L69.88,6.275 L69.88,17 Z M78.7,17 L81.145,17 L81.145,9.32 L78.7,9.32 L78.7,17 Z M78.7,8.255 L81.145,8.255 L81.145,6.275 L78.7,6.275 L78.7,8.255 Z M82.255,17 L84.7,17 L84.7,12.755 C84.7,11.81 85.24,11.135 86.05,11.135 C86.845,11.135 87.25,11.69 87.25,12.5 L87.25,17 L89.695,17 L89.695,12.005 C89.695,10.295 88.705,9.095 87.025,9.095 C85.96,9.095 85.225,9.545 84.655,10.37 L84.61,10.37 L84.61,9.32 L82.255,9.32 L82.255,17 Z M93.01,17.195 C91.48,17.195 90.385,16.37 90.385,14.855 C90.385,13.16 91.735,12.65 93.325,12.44 C94.765,12.26 95.275,12.11 95.275,11.585 C95.275,11.09 94.96,10.76 94.225,10.76 C93.445,10.76 93.055,11.105 92.98,11.75 L90.73,11.75 C90.79,10.325 91.885,9.11 94.21,9.11 C95.365,9.11 96.145,9.32 96.7,9.74 C97.36,10.22 97.675,10.97 97.675,11.93 L97.675,15.8 C97.675,16.415 97.735,16.76 97.945,16.895 L97.945,17 L95.575,17 C95.455,16.835 95.38,16.535 95.32,16.145 L95.29,16.145 C94.84,16.79 94.165,17.195 93.01,17.195 Z M93.79,15.635 C94.705,15.635 95.335,15.08 95.335,14.255 L95.335,13.34 C95.02,13.505 94.57,13.625 94.075,13.745 C93.13,13.955 92.74,14.195 92.74,14.78 C92.74,15.395 93.19,15.635 93.79,15.635 Z M98.8,17 L101.245,17 L101.245,12.755 C101.245,11.81 101.785,11.135 102.595,11.135 C103.39,11.135 103.795,11.69 103.795,12.5 L103.795,17 L106.24,17 L106.24,12.005 C106.24,10.295 105.25,9.095 103.57,9.095 C102.505,9.095 101.77,9.545 101.2,10.37 L101.155,10.37 L101.155,9.32 L98.8,9.32 L98.8,17 Z M111.025,17.24 C113.2,17.24 114.61,15.86 114.67,14.09 L112.33,14.09 C112.225,14.96 111.76,15.41 110.995,15.41 C109.945,15.41 109.42,14.54 109.42,13.175 C109.42,11.78 109.945,10.91 110.995,10.91 C111.685,10.91 112.105,11.36 112.255,12.05 L114.61,12.05 C114.385,10.325 113.05,9.11 110.965,9.11 C108.535,9.11 106.945,10.865 106.945,13.175 C106.945,15.485 108.55,17.24 111.025,17.24 Z M119.14,17.225 C116.605,17.225 115.045,15.47 115.045,13.145 C115.045,10.85 116.65,9.095 118.99,9.095 C120.085,9.095 120.955,9.455 121.615,10.055 C122.53,10.895 122.98,12.23 122.965,13.79 L117.445,13.79 C117.595,14.825 118.165,15.47 119.17,15.47 C119.815,15.47 120.235,15.185 120.445,14.705 L122.83,14.705 C122.665,15.395 122.215,16.055 121.54,16.52 C120.895,16.97 120.115,17.225 119.14,17.225 Z M117.46,12.335 L120.49,12.335 C120.4,11.42 119.83,10.835 119.035,10.835 C118.105,10.835 117.625,11.42 117.46,12.335 Z" id="Yahoo-Finance" fill="#000000"></path>
            <g id="Group" transform="translate(6.000000, 6.000000)" fill="#432C88">
                <ellipse id="Oval-2" cx="6.90500021" cy="6.10526316" rx="6.10500002" ry="6.10526316"></ellipse>
                <ellipse id="Oval-2-Copy" cx="6.90500021" cy="21.8947368" rx="6.10500002" ry="6.10526316"></ellipse>
            </g>
            <path d="M24.9842,33.6000004 L29.0448,22.3030002 L31.9204001,22.3030002 L35.9968001,33.6000004 L33.0580001,33.6000004 L32.3944001,31.5618004 L28.4444,31.5618004 L27.7966,33.6000004 L24.9842,33.6000004 Z M29.0922,29.5552003 L31.7466001,29.5552003 L30.8934001,26.8218003 C30.7038001,26.2372003 30.4510001,25.2260003 30.4510001,25.2260003 L30.4194001,25.2260003 C30.4194001,25.2260003 30.1508001,26.2372003 29.9612001,26.8218003 L29.0922,29.5552003 Z M36.4288001,33.6000004 L39.0042002,33.6000004 L39.0042002,29.1286003 C39.0042002,28.1332003 39.5730002,27.4222003 40.4262002,27.4222003 C41.2636002,27.4222003 41.6902002,28.0068003 41.6902002,28.8600003 L41.6902002,33.6000004 L44.2656002,33.6000004 L44.2656002,28.3386003 C44.2656002,26.5374003 43.2228002,25.2734003 41.4532002,25.2734003 C40.3314002,25.2734003 39.5572002,25.7474003 38.9568002,26.6164003 L38.9094002,26.6164003 L38.9094002,25.5104003 L36.4288001,25.5104003 L36.4288001,33.6000004 Z M53.4768003,31.5934004 C55.3096004,31.5934004 56.2102004,30.0292003 56.2102004,27.9752003 C56.2102004,25.9212003 55.3096004,24.3412003 53.4768003,24.3412003 C51.6598003,24.3412003 50.7276003,25.9212003 50.7276003,27.9752003 C50.7276003,30.0292003 51.6598003,31.5934004 53.4768003,31.5934004 Z M53.4610003,33.8686004 C50.0482003,33.8686004 47.8836003,31.3564004 47.8836003,27.9752003 C47.8836003,24.5940003 50.0482003,22.0818002 53.4610003,22.0818002 C56.8896004,22.0818002 59.0542004,24.5940003 59.0542004,27.9752003 C59.0542004,31.3564004 56.8896004,33.8686004 53.4610003,33.8686004 Z M62.0932004,33.8054004 C60.4816004,33.8054004 59.3282004,32.9364004 59.3282004,31.3406004 C59.3282004,29.5552003 60.7502004,29.0180003 62.4250004,28.7968003 C63.9418005,28.6072003 64.4790005,28.4492003 64.4790005,27.8962003 C64.4790005,27.3748003 64.1472005,27.0272003 63.3730005,27.0272003 C62.5514004,27.0272003 62.1406004,27.3906003 62.0616004,28.0700003 L59.6916004,28.0700003 C59.7548004,26.5690003 60.9082004,25.2892003 63.3572005,25.2892003 C64.5738005,25.2892003 65.3954005,25.5104003 65.9800005,25.9528003 C66.6752005,26.4584003 67.0070005,27.2484003 67.0070005,28.2596003 L67.0070005,32.3360004 C67.0070005,32.9838004 67.0702005,33.3472004 67.2914005,33.4894004 L67.2914005,33.6000004 L64.7950005,33.6000004 C64.6686005,33.4262004 64.5896005,33.1102004 64.5264005,32.6994004 L64.4948005,32.6994004 C64.0208005,33.3788004 63.3098005,33.8054004 62.0932004,33.8054004 Z M62.9148004,32.1622004 C63.8786005,32.1622004 64.5422005,31.5776004 64.5422005,30.7086003 L64.5422005,29.7448003 C64.2104005,29.9186003 63.7364005,30.0450003 63.2150005,30.1714003 C62.2196004,30.3926003 61.8088004,30.6454003 61.8088004,31.2616004 C61.8088004,31.9094004 62.2828004,32.1622004 62.9148004,32.1622004 Z M71.1046005,33.6948004 C71.7998006,33.6948004 72.2896006,33.6316004 72.5108006,33.5684004 L72.5108006,31.6882004 C72.4160006,31.6882004 72.1632006,31.7040004 71.9420006,31.7040004 C71.3890006,31.7040004 71.0414005,31.5460004 71.0414005,30.9140003 L71.0414005,27.1220003 L72.5108006,27.1220003 L72.5108006,25.5104003 L71.0414005,25.5104003 L71.0414005,22.9508003 L68.5292005,22.9508003 L68.5292005,25.5104003 L67.4548005,25.5104003 L67.4548005,27.1220003 L68.5292005,27.1220003 L68.5292005,31.4670004 C68.5292005,33.2050004 69.6036005,33.6948004 71.1046005,33.6948004 Z M73.2430006,33.6000004 L75.8184006,33.6000004 L75.8184006,29.1286003 C75.8184006,28.1332003 76.3872006,27.4222003 77.2404006,27.4222003 C78.0778006,27.4222003 78.5044006,28.0068003 78.5044006,28.8600003 L78.5044006,33.6000004 L81.0798007,33.6000004 L81.0798007,28.3386003 C81.0798007,26.5374003 80.0370007,25.2734003 78.2674006,25.2734003 C77.1456006,25.2734003 76.4504006,25.7316003 75.8658006,26.5058003 L75.8184006,26.5058003 L75.8184006,22.3030002 L73.2430006,22.3030002 L73.2430006,33.6000004 Z M90.4434008,33.8528004 C89.3690008,33.8528004 88.5000007,33.4104004 87.9944007,32.5730004 L87.9628007,32.5730004 L87.9628007,33.6000004 L85.4980007,33.6000004 L85.4980007,22.3030002 L88.0734007,22.3030002 L88.0734007,26.4268003 L88.1208007,26.4268003 C88.6264007,25.7316003 89.3216008,25.2734003 90.4276008,25.2734003 C92.5290008,25.2734003 93.8878008,27.1220003 93.8878008,29.5552003 C93.8878008,32.2412004 92.5290008,33.8528004 90.4434008,33.8528004 Z M89.7166008,31.8146004 C90.7278008,31.8146004 91.2808008,30.9456003 91.2808008,29.5394003 C91.2808008,28.1490003 90.7278008,27.2326003 89.6850008,27.2326003 C88.5474007,27.2326003 87.9944007,28.2280003 87.9944007,29.5552003 C87.9944007,30.8982003 88.6580007,31.8146004 89.7166008,31.8146004 Z M94.5568008,33.6000004 L97.1322008,33.6000004 L97.1322008,29.9660003 C97.1322008,28.2122003 98.1434009,27.4380003 99.7234009,27.6592003 L99.7866009,27.6592003 L99.7866009,25.4472003 C99.6760009,25.3998003 99.5180009,25.3840003 99.2810009,25.3840003 C98.3014009,25.3840003 97.6378009,25.8106003 97.0690008,26.7744003 L97.0216008,26.7744003 L97.0216008,25.5104003 L94.5568008,25.5104003 L94.5568008,33.6000004 Z M102.557001,33.8054004 C100.945401,33.8054004 99.7920009,32.9364004 99.7920009,31.3406004 C99.7920009,29.5552003 101.214001,29.0180003 102.888801,28.7968003 C104.405601,28.6072003 104.942801,28.4492003 104.942801,27.8962003 C104.942801,27.3748003 104.611001,27.0272003 103.836801,27.0272003 C103.015201,27.0272003 102.604401,27.3906003 102.525401,28.0700003 L100.155401,28.0700003 C100.218601,26.5690003 101.372001,25.2892003 103.821001,25.2892003 C105.037601,25.2892003 105.859201,25.5104003 106.443801,25.9528003 C107.139001,26.4584003 107.470801,27.2484003 107.470801,28.2596003 L107.470801,32.3360004 C107.470801,32.9838004 107.534001,33.3472004 107.755201,33.4894004 L107.755201,33.6000004 L105.258801,33.6000004 C105.132401,33.4262004 105.053401,33.1102004 104.990201,32.6994004 L104.958601,32.6994004 C104.484601,33.3788004 103.773601,33.8054004 102.557001,33.8054004 Z M103.378601,32.1622004 C104.342401,32.1622004 105.006001,31.5776004 105.006001,30.7086003 L105.006001,29.7448003 C104.674201,29.9186003 104.200201,30.0450003 103.678801,30.1714003 C102.683401,30.3926003 102.272601,30.6454003 102.272601,31.2616004 C102.272601,31.9094004 102.746601,32.1622004 103.378601,32.1622004 Z M108.519001,33.6000004 L111.094401,33.6000004 L111.094401,29.1286003 C111.094401,28.1332003 111.663201,27.4222003 112.516401,27.4222003 C113.353801,27.4222003 113.780401,28.0068003 113.780401,28.8600003 L113.780401,33.6000004 L116.355801,33.6000004 L116.355801,28.3386003 C116.355801,26.5374003 115.313001,25.2734003 113.543401,25.2734003 C112.421601,25.2734003 111.647401,25.7474003 111.047001,26.6164003 L110.999601,26.6164003 L110.999601,25.5104003 L108.519001,25.5104003 L108.519001,33.6000004 Z M120.500801,33.8528004 C118.431001,33.8528004 116.961601,32.2570004 116.961601,29.5552003 C116.961601,27.0272003 118.415201,25.2734003 120.500801,25.2734003 C121.638401,25.2734003 122.286201,25.7474003 122.760201,26.4268003 L122.807601,26.4268003 L122.807601,22.3030002 L125.383001,22.3030002 L125.383001,33.6000004 L122.918201,33.6000004 L122.918201,32.5098004 L122.886601,32.5098004 C122.396801,33.3472004 121.559401,33.8528004 120.500801,33.8528004 Z M121.164401,31.8146004 C122.238801,31.8146004 122.870801,30.8824003 122.870801,29.5552003 C122.870801,28.1964003 122.317801,27.2168003 121.196001,27.2168003 C120.169001,27.2168003 119.568601,28.1648003 119.568601,29.5236003 C119.568601,30.9298003 120.169001,31.8146004 121.164401,31.8146004 Z" id="An-Oath-brand" fill="#000000"></path>
        </g>
    </g>
</svg>